<?xml version="1.0" standalone="no"?>
<!DOCTYPE svg PUBLIC "-//W3C//DTD SVG 20010904//EN"
 "http://www.w3.org/TR/2001/REC-SVG-20010904/DTD/svg10.dtd">
<svg version="1.0" xmlns="http://www.w3.org/2000/svg"
 width="1280.000000pt" height="1280.000000pt" viewBox="0 0 1280.000000 1280.000000"
 preserveAspectRatio="xMidYMid meet">
<metadata>
Created by potrace 1.15, written by Peter Selinger 2001-2017
</metadata>
<g transform="translate(0.000000,1280.000000) scale(0.100000,-0.100000)"
fill="#000000" stroke="none">
<path d="M6090 12794 c-631 -42 -1090 -124 -1619 -291 -338 -106 -623 -223
-962 -394 -1824 -922 -3106 -2675 -3429 -4691 -57 -361 -75 -599 -75 -1023 1
-343 7 -471 35 -720 136 -1191 611 -2335 1355 -3262 220 -275 545 -616 790
-829 974 -847 2142 -1372 3410 -1533 293 -37 443 -46 805 -46 428 0 710 23
1080 86 2013 345 3749 1638 4654 3469 369 747 573 1482 648 2340 26 299 15
912 -23 1230 -128 1085 -520 2108 -1145 2980 -1025 1434 -2579 2382 -4303
2625 -161 23 -175 24 -341 41 -145 14 -754 26 -880 18z"/>
</g>
</svg>
